HIERARCHY
ROOT Hips
{
	OFFSET -0.001795 -0.223333 0.028219
	CHANNELS 6 Xposition Yposition Zposition Zrotation Yrotation Xrotation 
	JOINT LeftUpLeg
	{
		OFFSET 0.069520 -0.091406 -0.006815
		CHANNELS 3 Zrotation Yrotation Xrotation
		JOINT LeftLeg
		{
			OFFSET 0.034277 -0.375199 -0.004496
			CHANNELS 3 Zrotation Yrotation Xrotation
			JOINT LeftFoot
			{
				OFFSET -0.013596 -0.397961 -0.043693
				CHANNELS 3 Zrotation Yrotation Xrotation
				JOINT LeftToe
				{
					OFFSET 0.026358 -0.055791 0.119288
					CHANNELS 3 Zrotation Yrotation Xrotation
					End Site
					{
						OFFSET 0.000000 0.000000 0.000000
					}
				}
			}
		}
	}
	JOINT RightUpLeg
	{
		OFFSET -0.067670 -0.090522 -0.004320
		CHANNELS 3 Zrotation Yrotation Xrotation
		JOINT RightLeg
		{
			OFFSET -0.038290 -0.382569 -0.008850
			CHANNELS 3 Zrotation Yrotation Xrotation
			JOINT RightFoot
			{
				OFFSET 0.015774 -0.398415 -0.042312
				CHANNELS 3 Zrotation Yrotation Xrotation
				JOINT RightToe
				{
					OFFSET -0.025372 -0.048144 0.123348
					CHANNELS 3 Zrotation Yrotation Xrotation
					End Site
					{
						OFFSET 0.000000 0.000000 0.000000
					}
				}
			}
		}
	}
	JOINT Spine
	{
		OFFSET -0.002533 0.108963 -0.026696
		CHANNELS 3 Zrotation Yrotation Xrotation
		JOINT Spine1
		{
			OFFSET 0.005487 0.135180 0.001092
			CHANNELS 3 Zrotation Yrotation Xrotation
			JOINT Spine2
			{
				OFFSET 0.001457 0.052922 0.025425
				CHANNELS 3 Zrotation Yrotation Xrotation
				JOINT Neck
				{
					OFFSET -0.002778 0.213870 -0.042857
					CHANNELS 3 Zrotation Yrotation Xrotation
					JOINT Head
					{
						OFFSET 0.005152 0.064970 0.051349
						CHANNELS 3 Zrotation Yrotation Xrotation
						End Site
						{
							OFFSET 0.000000 0.000000 0.000000
						}
					}
				}
				JOINT LeftShoulder
				{
					OFFSET 0.078845 0.121749 -0.034090
					CHANNELS 3 Zrotation Yrotation Xrotation
					JOINT LeftArm
					{
						OFFSET 0.090977 0.030469 -0.008868
						CHANNELS 3 Zrotation Yrotation Xrotation
						JOINT LeftForeArm
						{
							OFFSET 0.259612 -0.012772 -0.027456
							CHANNELS 3 Zrotation Yrotation Xrotation
							JOINT LeftHand
							{
								OFFSET 0.249234 0.008986 -0.001171
								CHANNELS 3 Zrotation Yrotation Xrotation
								End Site
								{
									OFFSET 0.000000 0.000000 0.000000
								}
							}
						}
					}
				}
				JOINT RightShoulder
				{
					OFFSET -0.081759 0.118833 -0.038615
					CHANNELS 3 Zrotation Yrotation Xrotation
					JOINT RightArm
					{
						OFFSET -0.096012 0.032551 -0.009143
						CHANNELS 3 Zrotation Yrotation Xrotation
						JOINT RightForeArm
						{
							OFFSET -0.253742 -0.013329 -0.021401
							CHANNELS 3 Zrotation Yrotation Xrotation
							JOINT RightHand
							{
								OFFSET -0.255298 0.007772 -0.005559
								CHANNELS 3 Zrotation Yrotation Xrotation
								End Site
								{
									OFFSET 0.000000 0.000000 0.000000
								}
							}
						}
					}
				}
			}
		}
	}
}
MOTION
Frames: 16
Frame Time: 0.050000
-0.158385 0.824846 0.174258 -17.841991 37.718301 -11.760855 44.596189 -4.010212 -24.317831 -26.681496 4.034819 43.906595 15.512645 29.506589 7.672232 0.000000 0.000000 0.000000 14.890213 3.132813 -39.302653 -16.022433 1.708793 50.900844 8.816735 23.204325 -5.753478 0.000000 0.000000 0.000000 -10.362418 -2.006623 26.372994 -4.211057 2.332404 -5.435057 -14.194437 -18.253715 7.065307 6.820964 -2.749019 -17.389468 0.000000 0.000000 0.000000 -8.395458 -3.040207 -0.064949 -7.382063 -16.457684 -0.400427 30.301157 -1.537092 -0.561797 0.000000 0.000000 0.000000 2.533478 -16.746336 -6.151592 25.533483 -14.234858 -4.795933 -4.025068 32.457738 0.225699 0.000000 0.000000 0.000000 
-0.159573 0.822418 0.171142 -17.388118 34.536384 -11.491410 45.337142 -3.544614 -22.818021 -27.137702 4.916516 44.630217 15.690404 29.593986 9.186445 0.000000 0.000000 0.000000 15.916628 3.952507 -39.783308 -16.072716 2.559193 52.097229 8.985746 23.938047 -5.337059 0.000000 0.000000 0.000000 -9.965020 -1.828604 26.425277 -4.601799 2.469233 -5.170050 -15.018129 -18.271051 6.351678 6.619851 -2.807288 -16.879731 0.000000 0.000000 0.000000 -10.291331 -3.635310 0.195385 -6.740080 -15.012722 -0.474293 29.465828 -1.973902 -0.524987 0.000000 0.000000 0.000000 2.536154 -16.386743 -6.010111 23.490409 -13.595271 -4.250931 -4.370124 31.978623 -0.013259 0.000000 0.000000 0.000000 
-0.160031 0.820470 0.168498 -17.091448 32.618213 -11.144024 44.700818 -3.019748 -22.522289 -26.962148 5.224148 45.691239 16.376336 30.575996 8.863020 0.000000 0.000000 0.000000 16.313648 4.391081 -40.350526 -15.797043 2.918119 53.383606 8.638769 23.697605 -5.604139 0.000000 0.000000 0.000000 -9.227036 -1.856863 26.905597 -4.962026 2.595476 -4.980716 -16.155642 -19.042060 6.035838 6.906150 -3.080324 -16.955651 0.000000 0.000000 0.000000 -11.788814 -4.146678 0.539654 -6.488585 -14.549006 -0.524458 29.709637 -2.106995 -0.456149 0.000000 0.000000 0.000000 2.580889 -16.265753 -5.965062 22.517352 -12.522501 -3.887662 -5.060675 30.503922 -0.310724 0.000000 0.000000 0.000000 
-0.160126 0.820433 0.166897 -16.756708 30.502050 -11.264104 44.263148 -2.697580 -21.046844 -26.524727 5.417797 46.369681 16.144589 30.131770 9.110889 0.000000 0.000000 0.000000 16.724676 4.901466 -40.636390 -15.946097 3.561908 54.724842 9.258409 24.472156 -4.156312 0.000000 0.000000 0.000000 -8.785742 -1.789715 27.037563 -5.705626 2.862895 -4.166095 -16.485096 -19.989961 5.536739 6.165422 -2.756183 -17.212196 0.000000 0.000000 0.000000 -12.876656 -4.150501 0.811775 -7.296683 -13.050488 -0.594226 30.237705 -3.878521 -0.748034 0.000000 0.000000 0.000000 2.651328 -15.665159 -5.748937 21.927950 -11.350759 -3.612182 -5.932747 29.757044 -0.669755 0.000000 0.000000 0.000000 
-0.160306 0.822165 0.166312 -16.416805 29.040929 -10.699452 43.421766 -2.382659 -20.441311 -25.705587 5.298917 46.402869 15.909687 29.771403 9.035618 0.000000 0.000000 0.000000 16.980980 5.235297 -40.803873 -15.581113 3.794274 55.111801 9.452562 24.531153 -3.377017 0.000000 0.000000 0.000000 -8.411754 -1.681430 26.679971 -5.500695 2.801598 -4.825381 -17.893335 -20.381328 6.174632 6.111990 -2.800199 -17.115724 0.000000 0.000000 0.000000 -13.679250 -3.735656 0.726650 -8.230321 -13.004116 -0.628404 32.880880 -5.244978 -1.129585 0.000000 0.000000 0.000000 2.112172 -15.775895 -5.652071 21.436536 -9.975003 -3.331090 -5.402870 29.223609 -0.576967 0.000000 0.000000 0.000000 
-0.160942 0.823899 0.165994 -16.067672 27.936773 -10.287849 43.113775 -2.188042 -19.842889 -24.900536 5.184752 46.671684 15.347366 28.861337 10.215737 0.000000 0.000000 0.000000 17.034069 5.464973 -40.782489 -15.385959 4.032135 55.256062 9.416613 24.291508 -3.006706 0.000000 0.000000 0.000000 -8.087346 -1.565502 26.087776 -6.120000 3.020838 -4.107490 -17.972728 -21.419787 6.066891 6.053912 -2.742372 -18.366202 0.000000 0.000000 0.000000 -14.529824 -2.836096 0.559971 -8.723536 -12.587137 -0.698542 36.408819 -6.916735 -1.628548 0.000000 0.000000 0.000000 1.773755 -15.673056 -5.509404 21.694930 -9.235558 -3.287073 -5.400904 28.937692 -0.683560 0.000000 0.000000 0.000000 
-0.162196 0.825361 0.165490 -15.770080 27.227964 -9.694040 42.493528 -1.953690 -19.845348 -24.038456 4.942003 46.752535 14.552678 27.782204 9.559517 0.000000 0.000000 0.000000 17.334829 5.668123 -40.303623 -15.417287 4.274671 54.796951 9.404229 24.516359 -3.182447 0.000000 0.000000 0.000000 -8.101779 -1.473447 25.919192 -6.305434 3.112165 -5.101084 -18.715922 -21.490720 7.078314 6.309443 -2.982797 -18.214236 0.000000 0.000000 0.000000 -15.273486 -2.570506 0.493818 -8.269964 -12.725466 -0.721517 41.385346 -7.590299 -2.117124 0.000000 0.000000 0.000000 2.059244 -15.798266 -5.649862 21.306174 -8.896443 -3.190318 -5.114611 28.990217 -0.638154 0.000000 0.000000 0.000000 
-0.163937 0.825122 0.164461 -15.753868 26.987901 -9.639818 42.278941 -1.736022 -20.454428 -23.599115 4.854884 48.124226 13.964054 26.971289 9.521655 0.000000 0.000000 0.000000 17.295882 5.713872 -40.354303 -15.445008 4.367077 55.345584 9.124342 24.317490 -3.677571 0.000000 0.000000 0.000000 -7.795741 -1.478899 25.698920 -6.863261 3.317121 -4.455883 -18.724097 -21.792843 7.010551 6.986636 -3.218908 -19.703597 0.000000 0.000000 0.000000 -15.298268 -1.797021 0.199586 -7.880885 -12.798304 -0.727999 46.508054 -8.605477 -2.774328 0.000000 0.000000 0.000000 2.069737 -16.090305 -5.753686 21.383960 -8.768859 -3.192082 -4.464826 29.031242 -0.513822 0.000000 0.000000 0.000000 
-0.165757 0.823206 0.163246 -15.709074 26.684834 -9.631936 42.200302 -1.574102 -20.812543 -23.244873 4.796894 49.250044 13.323370 26.054129 9.105438 0.000000 0.000000 0.000000 17.541972 5.838998 -40.239203 -15.675317 4.590687 55.708560 8.922039 24.538117 -4.422118 0.000000 0.000000 0.000000 -7.574863 -1.478532 25.545702 -6.788967 3.286269 -4.302672 -18.889088 -21.325246 7.131025 6.739167 -3.025677 -19.856388 0.000000 0.000000 0.000000 -15.370201 -1.736953 0.106009 -7.115216 -12.655551 -0.713297 50.486645 -9.005634 -3.294092 0.000000 0.000000 0.000000 2.067037 -16.761738 -5.991839 21.099361 -9.049699 -3.180744 -4.359493 30.174213 -0.496658 0.000000 0.000000 0.000000 
-0.167380 0.820317 0.162236 -15.954849 26.884836 -9.941337 42.182448 -1.506763 -21.305176 -22.844112 4.598293 50.877910 12.603184 25.010479 8.419406 0.000000 0.000000 0.000000 17.632217 5.844345 -40.329952 -15.612208 4.465173 56.757900 8.635418 23.897433 -4.486445 0.000000 0.000000 0.000000 -7.431292 -1.523105 25.523166 -6.707264 3.258138 -4.210402 -18.834715 -21.106703 7.669943 6.888070 -3.013753 -20.706962 0.000000 0.000000 0.000000 -14.970313 -1.523924 -0.017811 -6.459481 -11.939103 -0.714364 53.679574 -8.555591 -3.393300 0.000000 0.000000 0.000000 1.521774 -16.739135 -5.831728 21.315931 -8.978976 -3.227567 -4.614436 30.452929 -0.556049 0.000000 0.000000 0.000000 
-0.168151 0.817316 0.161716 -16.020823 26.838904 -10.145158 42.427936 -1.434894 -21.628130 -22.489302 4.473146 51.959601 12.047234 24.176082 8.342931 0.000000 0.000000 0.000000 17.981008 5.962732 -40.361770 -15.798602 4.574828 57.935460 8.314618 24.173237 -5.581730 0.000000 0.000000 0.000000 -7.234316 -1.552192 25.466014 -6.787461 3.296009 -4.307263 -19.026209 -20.529628 7.970760 7.102262 -2.987996 -21.448736 0.000000 0.000000 0.000000 -14.807886 -1.187012 -0.272606 -6.047414 -12.034784 -0.694382 55.757728 -8.118257 -3.443719 0.000000 0.000000 0.000000 1.306265 -16.824649 -5.811061 21.186795 -9.280000 -3.249214 -4.753261 31.263632 -0.572233 0.000000 0.000000 0.000000 
-0.167842 0.815391 0.161348 -16.244266 27.123377 -10.227081 42.099380 -1.421320 -21.908984 -22.128894 4.212227 52.919257 11.720527 23.672793 7.425598 0.000000 0.000000 0.000000 18.268740 6.015334 -40.501657 -16.135983 4.712104 59.126313 8.321693 24.243415 -5.550044 0.000000 0.000000 0.000000 -7.144156 -1.553767 25.192612 -6.603522 3.221567 -4.172304 -19.257782 -20.281207 7.878952 7.069018 -2.974573 -21.040682 0.000000 0.000000 0.000000 -14.719359 -1.206011 -0.345426 -5.423891 -11.920315 -0.669393 55.692320 -7.674277 -3.297267 0.000000 0.000000 0.000000 1.083078 -16.824631 -5.751731 20.796764 -9.369162 -3.181046 -4.262555 32.239909 -0.430505 0.000000 0.000000 0.000000 
-0.166639 0.814841 0.161038 -16.700254 27.627653 -10.214058 42.335284 -1.459820 -22.528764 -21.902221 4.020513 53.060155 11.561081 23.480521 7.901938 0.000000 0.000000 0.000000 17.906600 5.828511 -40.943409 -15.420140 4.074589 60.054173 8.149473 23.515533 -5.243209 0.000000 0.000000 0.000000 -6.816590 -1.624130 25.070307 -6.569999 3.218369 -4.822511 -19.649906 -19.870750 8.229277 7.642423 -3.210470 -21.137969 0.000000 0.000000 0.000000 -14.670988 -1.380175 -0.395700 -5.524538 -11.401015 -0.657983 54.219559 -8.001343 -3.453886 0.000000 0.000000 0.000000 1.007226 -16.884923 -5.775419 20.533492 -8.932707 -3.067696 -4.498502 32.141010 -0.425895 0.000000 0.000000 0.000000 
-0.165003 0.816562 0.160409 -17.136157 28.082800 -10.478724 42.204600 -1.532630 -22.705769 -21.506714 3.676258 53.382394 10.783447 22.214868 6.630763 0.000000 0.000000 0.000000 18.028279 5.750517 -40.204025 -15.051004 3.556473 60.139988 7.622728 22.946333 -6.176514 0.000000 0.000000 0.000000 -6.804665 -1.611232 24.687936 -6.730270 3.285061 -4.833230 -19.843479 -19.483985 7.684084 7.957944 -3.253857 -21.284852 0.000000 0.000000 0.000000 -13.938597 -1.469014 -0.455381 -5.806498 -11.238212 -0.634032 51.576703 -9.673041 -4.061676 0.000000 0.000000 0.000000 0.661372 -16.632806 -5.600321 19.741644 -8.533596 -2.854224 -3.546350 32.238233 -0.107329 0.000000 0.000000 0.000000 
-0.163296 0.819562 0.159885 -18.114639 28.977377 -10.785063 42.766067 -1.733818 -23.135469 -21.665150 3.592002 52.872747 10.690600 22.122265 6.907928 0.000000 0.000000 0.000000 17.969997 5.546495 -39.746981 -13.977784 2.466323 59.460280 7.027314 20.992334 -5.982392 0.000000 0.000000 0.000000 -6.706007 -1.640008 24.300354 -6.951106 3.389215 -5.952092 -20.043475 -18.447045 8.434725 8.941162 -3.651084 -21.506355 0.000000 0.000000 0.000000 -13.313359 -2.116981 -0.360633 -5.456902 -10.803262 -0.603186 49.987823 -11.270180 -4.818340 0.000000 0.000000 0.000000 0.567759 -16.518649 -5.593859 18.883602 -7.818601 -2.629362 -3.762395 30.352167 -0.019926 0.000000 0.000000 0.000000 
-0.161459 0.823708 0.159551 -18.801727 30.264062 -11.105995 42.882124 -1.989556 -23.578506 -21.477611 3.214371 52.700881 9.592407 20.352847 6.386408 0.000000 0.000000 0.000000 17.716269 5.233921 -39.034754 -12.930525 1.283363 58.653886 6.441972 19.500530 -6.329529 0.000000 0.000000 0.000000 -7.022773 -1.614072 23.879757 -6.907128 3.376232 -5.934367 -20.116113 -17.663320 7.953657 9.453266 -3.815231 -21.172512 0.000000 0.000000 0.000000 -12.096917 -2.430788 -0.360511 -5.544580 -10.343456 -0.565365 47.841594 -12.994626 -5.443204 0.000000 0.000000 0.000000 0.161478 -16.207093 -5.422469 17.972923 -7.470030 -2.424527 -4.247286 29.414960 -0.020915 0.000000 0.000000 0.000000 
